<svg width="48" height="47" viewBox="0 0 48 47" fill="none" xmlns="http://www.w3.org/2000/svg">
<path d="M30.1995 16.8806C30.1995 16.8806 23.1935 24.3419 21.387 30.0994L16.9807 25.6931M41.9495 23.49C41.9495 28.3592 40.0152 33.029 36.5721 36.472C33.1291 39.9151 28.4593 41.8494 23.5901 41.8494C18.7209 41.8494 14.0511 39.9151 10.608 36.472C7.165 33.029 5.23071 28.3592 5.23071 23.49C5.23071 18.6208 7.165 13.951 10.608 10.508C14.0511 7.0649 18.7209 5.13062 23.5901 5.13062C28.4593 5.13062 33.1291 7.0649 36.5721 10.508C40.0152 13.951 41.9495 18.6208 41.9495 23.49Z" stroke="#59D499" stroke-width="4.40625" stroke-linecap="round" stroke-linejoin="round"/>
</svg>
