<svg width="109" height="29" viewBox="0 0 109 29" fill="none" xmlns="http://www.w3.org/2000/svg">
<g clip-path="url(#clip0_3_940)">
<mask id="mask0_3_940" style="mask-type:luminance" maskUnits="userSpaceOnUse" x="0" y="0" width="109" height="29">
<path d="M0.0078125 0.23999H108.549V28.37H0.0078125V0.23999Z" fill="white"/>
</mask>
<g mask="url(#mask0_3_940)">
<path fill-rule="evenodd" clip-rule="evenodd" d="M7.03906 18.3967V21.3316L0.0078125 14.2991L1.47383 12.8329L7.03906 18.3956V18.3967ZM9.97344 21.3316H7.03906L14.0703 28.3641L15.5363 26.8979L9.97344 21.3316ZM26.6609 15.7678L28.1293 14.2991L14.0668 0.234131L12.602 1.70627L18.1648 7.27015H14.8039L10.9203 3.39407L9.4543 4.86034L11.8684 7.27601H10.1809V18.1928H21.0957V16.505L23.5109 18.9195L24.977 17.4544L21.0957 13.5701V10.2062L26.6609 15.7678ZM7.77266 6.53877L6.30078 8.00739L7.87578 9.58149L9.34297 8.11405L7.77266 6.53877ZM20.2602 19.0285L18.793 20.4971L20.3668 22.0724L21.8352 20.6038L20.2602 19.0285ZM4.62383 9.68698L3.15547 11.1579L7.03906 15.0399V12.1026L4.625 9.68815L4.62383 9.68698ZM16.2734 21.3375H13.3367L17.2191 25.2218L18.6875 23.7532L16.2734 21.3375Z" fill="#FF6363"/>
<path d="M106.633 21.314C105.686 21.314 104.946 21.0573 104.418 20.5416C103.889 20.0259 103.624 19.3109 103.624 18.4026V12.7766H101.925V10.6703H103.633L103.938 7.85735H105.938V10.6703H108.548V12.7801H105.938V18.099C105.933 18.3888 106.04 18.6693 106.238 18.8808C106.34 18.9891 106.464 19.0743 106.601 19.1305C106.739 19.1868 106.887 19.2127 107.035 19.2066H108.547V21.3152H106.633V21.314ZM96.4157 21.5133C95.1536 21.5133 94.1376 21.2121 93.3688 20.6108C92.605 20.0131 92.0813 19.1608 91.8935 18.2092H94.4048C94.5138 18.5749 94.7575 18.8855 95.0868 19.0789C95.4899 19.3121 95.9505 19.4258 96.4157 19.4071C97.7552 19.4071 98.4278 19.032 98.4278 18.3088C98.4278 17.9478 98.2169 17.6712 97.7962 17.4813C97.3064 17.2724 96.7945 17.1194 96.2704 17.0254C95.6625 16.9094 95.0609 16.7623 94.4681 16.5847C93.8631 16.4059 93.3264 16.0484 92.9282 15.5591C92.511 15.0586 92.2989 14.4023 92.2989 13.5888C92.2923 13.1605 92.3845 12.7364 92.5684 12.3496C92.7524 11.9627 93.0231 11.6235 93.3595 11.3584C94.0696 10.7665 95.054 10.4699 96.3126 10.4711C97.5712 10.4711 98.5626 10.7524 99.3126 11.3138C100.049 11.8719 100.556 12.681 100.736 13.5877H98.2216C97.9544 12.9184 97.3192 12.5832 96.3185 12.5832C95.2438 12.5832 94.7095 12.9196 94.7095 13.5912C94.711 13.7452 94.7538 13.896 94.8334 14.0279C94.9129 14.1599 95.0263 14.2681 95.1618 14.3413C95.5052 14.5523 95.8884 14.6882 96.2868 14.7457C96.786 14.8301 97.2794 14.9449 97.7634 15.0868C98.2673 15.2309 98.7595 15.4067 99.2399 15.6154C99.7075 15.8275 100.104 16.1721 100.378 16.6058C100.697 17.1156 100.855 17.7099 100.834 18.3112C100.844 18.7585 100.747 19.2018 100.551 19.6042C100.355 20.0066 100.067 20.3565 99.7087 20.6249C98.9599 21.2156 97.8618 21.5121 96.4157 21.5133ZM88.9298 11.5342C88.1563 10.8391 87.0712 10.491 85.6802 10.491C84.5669 10.491 83.6353 10.7899 82.8841 11.3888C82.1371 11.9709 81.6085 12.7883 81.3841 13.7084H83.7583C83.879 13.3603 84.1099 13.0602 84.4146 12.8551C84.7847 12.6058 85.2249 12.4814 85.6708 12.5C86.2296 12.469 86.7798 12.6475 87.2142 13.0004C87.4054 13.1785 87.555 13.3965 87.6522 13.639C87.7495 13.8816 87.792 14.1426 87.7767 14.4034V14.9145H85.0696C83.8145 14.9145 82.8313 15.2262 82.1235 15.8521C81.7826 16.1435 81.5104 16.5069 81.3266 16.9161C81.1428 17.3252 81.052 17.7701 81.0606 18.2186C81.0462 18.6633 81.1269 19.106 81.2975 19.517C81.4681 19.928 81.7246 20.2977 82.0497 20.6014C82.7106 21.2273 83.5849 21.5391 84.6747 21.5391C85.35 21.5548 86.0184 21.3996 86.6177 21.0878C87.0993 20.8534 87.5071 20.4901 87.7954 20.0376H87.8927L88.0802 21.3504H90.0899V14.4116C90.0911 13.1927 89.7044 12.2339 88.9298 11.5342ZM87.7872 17.2211C87.8013 17.5368 87.7455 17.8518 87.624 18.1435C87.5025 18.4352 87.3181 18.6966 87.0841 18.9089C86.6188 19.3227 85.9837 19.5301 85.1774 19.5301C84.5915 19.5301 84.1403 19.3965 83.831 19.1316C83.6804 19.0096 83.5598 18.8546 83.4786 18.6786C83.3973 18.5026 83.3575 18.3104 83.3622 18.1166C83.3622 17.1789 83.9751 16.7136 85.1786 16.7136H87.7872V17.2211ZM75.0325 21.5367C73.5091 21.5367 72.2927 21.0468 71.3798 20.0693C70.4704 19.0918 70.011 17.7404 70.011 16.0115C70.011 14.2815 70.4681 12.936 71.3751 11.9561C72.2821 10.9774 73.5032 10.491 75.0325 10.491C76.2747 10.491 77.306 10.8215 78.1227 11.4861C78.9249 12.1252 79.4965 13.0088 79.7505 14.0026H77.4478C77.222 13.562 76.8744 13.1956 76.4465 12.9469C76.0185 12.6982 75.5282 12.5776 75.0337 12.5996C74.6586 12.5863 74.2854 12.6597 73.9434 12.8142C73.6013 12.9687 73.2995 13.2001 73.0614 13.4904C72.5622 14.087 72.3114 14.9274 72.3114 16.0104C72.3114 17.0945 72.5622 17.9361 73.0614 18.5327C73.2988 18.8237 73.6002 19.056 73.9421 19.2113C74.284 19.3666 74.6572 19.4408 75.0325 19.4282C75.5272 19.4491 76.0176 19.3277 76.4454 19.0784C76.8733 18.8291 77.2207 18.4624 77.4466 18.0217H79.7505C79.4962 19.0166 78.9243 19.9013 78.1216 20.5416C77.3083 21.2039 76.2782 21.5367 75.0325 21.5367ZM61.4493 25.3601L63.056 21.3398L58.7399 10.695H61.2513L64.1646 18.2279H64.2606L67.1786 10.695H69.6888L63.8587 25.3601H61.4493ZM56.5708 11.5342C55.7974 10.838 54.7134 10.491 53.32 10.491C52.2079 10.491 51.2763 10.7899 50.5239 11.3888C49.7802 11.9717 49.2556 12.7893 49.0356 13.7084H51.4075C51.5282 13.3603 51.7579 13.0602 52.0638 12.8551C52.4342 12.6064 52.8742 12.482 53.32 12.5C53.9716 12.5 54.4872 12.6676 54.8622 13.0004C55.0539 13.1782 55.2037 13.3962 55.301 13.6388C55.3982 13.8814 55.4405 14.1425 55.4247 14.4034V14.9145H52.706C51.4567 14.9145 50.4747 15.2262 49.761 15.8521C49.4194 16.1431 49.1466 16.5063 48.9624 16.9155C48.7782 17.3248 48.6871 17.7698 48.6958 18.2186C48.6828 18.6618 48.7644 19.1028 48.9351 19.512C49.1059 19.9213 49.3619 20.2895 49.686 20.592C50.3458 21.2179 51.2212 21.5297 52.311 21.5297C52.9856 21.5455 53.6532 21.3902 54.2517 21.0784C54.7345 20.844 55.1423 20.4807 55.4306 20.0283H55.5267L55.7259 21.341H57.7321V14.4023C57.7321 13.1892 57.3454 12.2339 56.572 11.5342H56.5708ZM55.4247 17.2211C55.4388 17.5368 55.383 17.8518 55.2615 18.1435C55.14 18.4352 54.9556 18.6966 54.7216 18.9089C54.2575 19.3227 53.62 19.5301 52.8138 19.5301C52.2278 19.5301 51.7767 19.3965 51.4661 19.1316C51.3159 19.0093 51.1956 18.8542 51.1144 18.6783C51.0331 18.5024 50.9931 18.3103 50.9974 18.1166C51.0056 17.1836 51.6103 16.716 52.8138 16.7136H55.4247V17.2211ZM43.5454 16.0115C43.904 15.9166 44.2497 15.7806 44.5767 15.606C44.9587 15.3974 45.3161 15.1454 45.6419 14.8559C46.0356 14.4925 46.3392 14.0436 46.529 13.5431C46.7564 12.9547 46.8688 12.3288 46.8606 11.6983C46.8606 10.3586 46.4329 9.28612 45.5786 8.47972C44.7231 7.67333 43.6099 7.27248 42.2411 7.27599H36.4146V21.341H38.9259V16.1205H40.8302L44.4489 21.3375H47.2614L43.5466 16.0104L43.5454 16.0115ZM38.9259 13.8947V9.48771H42.036C42.7485 9.48771 43.311 9.67525 43.7235 10.0667C44.136 10.4594 44.3458 10.995 44.3458 11.6912C44.3458 12.3874 44.1384 12.9313 43.72 13.3193C43.2606 13.7178 42.6653 13.9252 42.056 13.8947H38.9259Z" fill="#E6E6E6"/>
</g>
</g>
<defs>
<clipPath id="clip0_3_940">
<rect width="109" height="28.13" fill="white" transform="translate(0 0.23999)"/>
</clipPath>
</defs>
</svg>
